HIERARCHY
ROOT Hips
{
	OFFSET 0.00 0.00 0.00
	CHANNELS 6 Xposition Yposition Zposition Xrotation Yrotation Zrotation
	JOINT Spine
	{
		OFFSET 0.00000 1.72418 2.58627
		CHANNELS 3 Xrotation Yrotation Zrotation
		JOINT Spine1
		{
			OFFSET 0.00000 0.59880 3.39597
			CHANNELS 3 Xrotation Yrotation Zrotation
			JOINT Spine2
			{
				OFFSET 0.00000 0.30055 3.43524
				CHANNELS 3 Xrotation Yrotation Zrotation
				JOINT Spine3
				{
					OFFSET 0.00000 0.00000 3.44836
					CHANNELS 3 Xrotation Yrotation Zrotation
					JOINT Neck
					{
						OFFSET 0.00000 -1.29313 9.05195
						CHANNELS 3 Xrotation Yrotation Zrotation
						JOINT Head
						{
							OFFSET 0.00000 -0.82335 4.66946
							CHANNELS 3 Xrotation Yrotation Zrotation
							End Site
							{
								OFFSET 0.00000 0.00001 5.58203
							}
						}
					}
					JOINT RightShoulder
					{
						OFFSET -1.18828 -1.98046 6.41673
						CHANNELS 3 Xrotation Yrotation Zrotation
						JOINT RightArm
						{
							OFFSET -5.90180 0.00000 0.00000
							CHANNELS 3 Xrotation Yrotation Zrotation
							JOINT RightForeArm
							{
								OFFSET -11.45951 0.00000 0.00000
								CHANNELS 3 Xrotation Yrotation Zrotation
								JOINT RightHand
								{
									OFFSET -10.63451 0.00000 0.00000
									CHANNELS 3 Xrotation Yrotation Zrotation
									JOINT RightHandEnd
									{
										OFFSET -2.86944 0.00000 0.00000
										CHANNELS 3 Xrotation Yrotation Zrotation
										End Site
										{
											OFFSET -2.86944 0.00000 0.00000
										}
									}
									JOINT RightHandThumb1
									{
										OFFSET -1.14778 -1.91296 -0.76518
										CHANNELS 3 Yrotation Xrotation Zrotation
										End Site
										{
											OFFSET -2.77167 -0.74267 0.00000
										}
									}
								}
							}
						}
					}
					JOINT LeftShoulder
					{
						OFFSET 1.18828 -1.98046 6.41673
						CHANNELS 3 Xrotation Yrotation Zrotation
						JOINT LeftArm
						{
							OFFSET 5.90180 0.00000 0.00000
							CHANNELS 3 Xrotation Yrotation Zrotation
							JOINT LeftForeArm
							{
								OFFSET 11.45951 0.00000 0.00000
								CHANNELS 3 Xrotation Yrotation Zrotation
								JOINT LeftHand
								{
									OFFSET 10.63451 0.00000 0.00000
									CHANNELS 3 Xrotation Yrotation Zrotation
									JOINT LeftHandEnd
									{
										OFFSET 2.86944 0.00000 0.00000
										CHANNELS 3 Xrotation Yrotation Zrotation
										End Site
										{
											OFFSET 2.86944 0.00000 0.00000
										}
									}
									JOINT LeftHandThumb1
									{
										OFFSET 1.14778 -1.91296 -0.76518
										CHANNELS 3 Yrotation Xrotation Zrotation
										End Site
										{
											OFFSET 2.77167 -0.74267 0.00000
										}
									}
								}
							}
						}
					}
				}
			}
		}
	}
	JOINT RightUpLeg
	{
		OFFSET -3.52524 0.00000 -1.02984
		CHANNELS 3 Xrotation Yrotation Zrotation
		JOINT RightLeg
		{
			OFFSET 0.00001 0.00000 -17.80965
			CHANNELS 3 Xrotation Yrotation Zrotation
			JOINT RightFoot
			{
				OFFSET 0.00001 0.00000 -17.00908
				CHANNELS 3 Xrotation Yrotation Zrotation
				JOINT RightToeBase
				{
					OFFSET 0.00000 -5.55853 -2.02314
					CHANNELS 3 Xrotation Yrotation Zrotation
					End Site
					{
						OFFSET 0.00000 -2.85188 -0.00000
					}
				}
			}
		}
	}
	JOINT LeftUpLeg
	{
		OFFSET 3.52524 0.00000 -1.02984
		CHANNELS 3 Xrotation Yrotation Zrotation
		JOINT LeftLeg
		{
			OFFSET 0.00001 0.00000 -17.80965
			CHANNELS 3 Xrotation Yrotation Zrotation
			JOINT LeftFoot
			{
				OFFSET 0.00001 0.00000 -17.00908
				CHANNELS 3 Xrotation Yrotation Zrotation
				JOINT LeftToeBase
				{
					OFFSET 0.00000 -5.55853 -2.02314
					CHANNELS 3 Xrotation Yrotation Zrotation
					End Site
					{
						OFFSET 0.00000 -2.85188 -0.00000
					}
				}
			}
		}
	}
}
MOTION
Frames: 12
Frame Time: 0.016683
 3.0551 -12.0157 36.5791 -0.3732 8.0396 -163.1048 1.2471 9.2844 -2.2410 0.5395 0.7132 -0.1924 4.6439 -3.1797 -7.4609 1.8612 -1.0605 -0.2404 -0.6793 -9.7985 -8.9436 -3.1157 -1.6977 -3.8891 15.7946 -15.1003 1.3001 32.8285 -17.2001 32.0711 0.0000 0.0000 27.1504 4.3475 15.3081 -6.1948 -0.0000 0.0000 -0.0000 -0.0000 -0.0000 0.0000 20.7159 -1.7151 -20.6949 36.8657 14.9239 -63.0295 -0.0000 -0.0000 -53.6454 3.9289 -15.7540 -1.3749 -0.0000 0.0000 -0.0000 -0.0000 0.0000 -0.0000 -27.3579 15.4921 -41.6867 9.7403 0.0000 0.0000 -2.4143 -11.4139 10.7022 -12.4346 0.0000 -0.0000 12.5557 8.1309 -8.8684 16.3945 0.0000 0.0000 -13.7487 -1.8540 -0.7843 -10.8049 0.0000 -0.0000
 2.9695 -11.3157 36.3091 -0.0446 8.3781 -163.0829 1.7327 9.5807 -2.3528 0.6577 0.8383 -0.1951 4.7461 -3.4200 -7.7491 1.8317 -1.1340 -0.2210 -0.6840 -10.1553 -8.9888 -3.2490 -1.6930 -3.5717 16.1952 -14.6312 0.0774 31.1462 -16.4757 29.5444 0.0000 0.0000 27.0761 4.7318 15.4802 -6.4495 -0.0000 -0.0000 0.0000 -0.0000 0.0000 0.0000 19.6656 -2.7661 -21.6702 35.6988 14.0739 -64.8611 -0.0000 -0.0000 -58.3196 5.0318 -15.9746 -1.0831 -0.0000 0.0000 -0.0000 0.0000 -0.0000 0.0000 -28.8234 16.0910 -37.8299 11.6740 0.0000 0.0000 -2.2985 -11.8996 9.6340 -12.4571 0.0000 -0.0000 13.8788 8.0520 -9.1357 17.0547 0.0000 0.0000 -15.0596 -1.4910 -1.0565 -11.4853 0.0000 -0.0000
 2.8808 -10.5870 36.0257 0.3349 8.5980 -163.3860 2.1539 9.7296 -2.4772 0.7627 0.9046 -0.2054 4.8474 -3.6186 -7.8996 1.8047 -1.1842 -0.1960 -0.6646 -10.3916 -8.8652 -3.3430 -1.6949 -3.1958 16.5768 -13.9488 -0.9197 29.5209 -15.8103 27.1493 0.0000 0.0000 26.7973 5.4022 16.0911 -6.6946 0.0000 0.0000 -0.0000 0.0000 -0.0000 -0.0000 18.6977 -3.5738 -22.3723 34.2530 13.6711 -66.3382 -0.0000 -0.0001 -63.1449 5.4991 -16.2614 -1.2350 -0.0000 -0.0000 0.0000 -0.0000 -0.0000 0.0000 -30.3826 16.3929 -33.0486 14.6556 0.0000 0.0000 -2.5129 -12.0727 7.6069 -12.7165 0.0000 -0.0000 15.1760 7.9477 -9.1717 17.8699 0.0000 0.0000 -16.3211 -1.1675 -1.2091 -12.3299 0.0000 -0.0000
 2.7968 -9.8116 35.7403 0.6967 8.6967 -163.9196 2.4150 9.7895 -2.5835 0.8337 0.9364 -0.2160 4.9505 -3.8006 -7.9798 1.7983 -1.2121 -0.1754 -0.5956 -10.5545 -8.6497 -3.3974 -1.6815 -2.7402 16.8053 -13.1456 -1.7812 28.0256 -15.2264 24.9187 0.0000 0.0000 26.2207 6.0942 17.0020 -6.8933 -0.0000 0.0000 0.0000 0.0000 -0.0000 -0.0000 17.9114 -4.2397 -22.8186 32.6596 13.7509 -67.5644 -0.0000 -0.0001 -67.9105 5.0931 -16.6404 -1.8740 -0.0000 0.0000 0.0000 0.0000 -0.0000 0.0000 -31.8548 16.2852 -28.4250 18.0680 0.0000 0.0000 -2.6393 -12.0368 5.4960 -13.2491 0.0000 -0.0000 16.4402 7.8099 -8.9812 18.7738 0.0000 0.0000 -17.3586 -0.8269 -1.3019 -13.2873 0.0000 -0.0000
 2.7234 -8.9820 35.4680 0.9880 8.6394 -164.5883 2.4716 9.7476 -2.6422 0.8434 0.9496 -0.2279 5.0578 -3.9745 -8.0545 1.8147 -1.2198 -0.1648 -0.4665 -10.6874 -8.4097 -3.4311 -1.6273 -2.1916 16.7436 -12.3751 -2.5802 26.7131 -14.6332 22.8262 0.0000 0.0000 25.3249 6.6312 18.0080 -7.0623 0.0000 -0.0000 -0.0000 -0.0000 -0.0000 0.0000 17.3140 -4.7767 -23.0545 31.1104 14.2760 -68.5962 -0.0000 -0.0001 -72.4304 3.7872 -17.0251 -2.9481 0.0000 0.0000 0.0000 0.0000 -0.0000 0.0000 -33.0907 15.7657 -24.5375 21.4481 0.0000 0.0000 -2.4818 -11.6317 3.7151 -13.8347 0.0000 -0.0000 17.6004 7.5972 -8.6134 19.7958 0.0000 0.0000 -18.0097 -0.4046 -1.3738 -14.3831 0.0000 -0.0000
 2.6646 -8.1000 35.2206 1.1546 8.3952 -165.3207 2.3043 9.5731 -2.6232 0.7831 0.9699 -0.2412 5.1504 -4.1537 -8.1820 1.8435 -1.2211 -0.1684 -0.2771 -10.8126 -8.1740 -3.4535 -1.5096 -1.5504 16.3162 -11.7656 -3.3441 25.6134 -13.9022 20.8236 0.0000 0.0000 24.1683 6.9876 18.9216 -7.2641 -0.0000 0.0000 -0.0000 -0.0000 0.0000 0.0000 16.8782 -5.1535 -23.1207 29.7842 15.1382 -69.4670 -0.0000 -0.0001 -76.5844 1.8012 -17.2783 -4.2589 -0.0000 0.0000 -0.0000 -0.0000 -0.0000 -0.0000 -34.1196 14.9019 -21.3982 24.6499 0.0000 0.0000 -2.0853 -10.5619 2.2276 -14.0376 0.0000 -0.0000 18.5216 7.2774 -8.1386 21.0462 0.0000 0.0000 -18.1530 0.1389 -1.4480 -15.7702 0.0000 -0.0000
 2.6224 -7.1718 35.0020 1.1783 7.9581 -166.0743 1.9466 9.2651 -2.5314 0.6600 1.0225 -0.2488 5.1885 -4.3978 -8.3907 1.8659 -1.2160 -0.1884 -0.0298 -10.9259 -7.9337 -3.4496 -1.3106 -0.8279 15.5332 -11.3545 -4.0622 24.7238 -12.9594 18.8652 0.0000 0.0000 22.8847 7.2905 19.6040 -7.5787 0.0000 0.0000 0.0000 0.0000 -0.0000 0.0000 16.5014 -5.3373 -23.0611 28.8819 16.2398 -70.2027 -0.0000 -0.0001 -80.3242 -0.5125 -17.2774 -5.5604 -0.0000 0.0000 0.0000 -0.0000 -0.0000 0.0000 -35.0676 13.7671 -18.7769 27.7703 0.0000 0.0000 -1.6234 -8.6371 0.8429 -13.3831 0.0000 -0.0000 19.0898 6.8312 -7.6275 22.6544 0.0000 0.0000 -17.7090 0.7999 -1.5488 -17.7296 0.0000 -0.0000
 2.5977 -6.2013 34.8094 1.1453 7.3191 -166.8294 1.5112 8.8146 -2.4037 0.5079 1.0839 -0.2648 5.1314 -4.7130 -8.6761 1.8684 -1.2295 -0.2120 0.2692 -10.9946 -7.6490 -3.3866 -1.0250 -0.0459 14.4908 -11.0642 -4.7088 24.0223 -11.8272 16.9585 0.0000 0.0000 21.6278 7.7144 20.0020 -8.0504 0.0000 -0.0000 0.0000 -0.0000 -0.0000 -0.0000 16.1513 -5.3364 -22.8842 28.4526 17.4346 -70.8250 -0.0001 -0.0001 -83.6641 -2.8032 -17.0323 -6.6021 0.0000 0.0000 -0.0000 0.0000 0.0000 0.0000 -35.9679 12.3833 -16.4834 30.9676 0.0000 0.0000 -1.3224 -5.9792 -0.5982 -11.6073 0.0000 -0.0000 19.3242 6.1996 -7.0940 24.6941 0.0000 0.0000 -16.6201 1.5263 -1.7476 -20.5784 0.0000 -0.0000
 2.5909 -5.1938 34.6351 1.1384 6.4811 -167.5736 1.0881 8.2477 -2.2961 0.3586 1.1195 -0.2920 4.9724 -5.1126 -9.0175 1.8464 -1.2758 -0.2237 0.6039 -10.9908 -7.2851 -3.2432 -0.6565 0.7790 13.3273 -10.7748 -5.2541 23.4858 -10.5791 15.1450 0.0000 0.0000 20.5297 8.3639 20.1224 -8.6544 0.0000 0.0000 0.0000 0.0000 0.0000 0.0000 15.8065 -5.2279 -22.6153 28.4593 18.6293 -71.3341 -0.0001 -0.0001 -86.6581 -4.8098 -16.6503 -7.2400 -0.0000 -0.0000 -0.0000 -0.0000 -0.0000 0.0000 -36.8081 10.7580 -14.4148 34.3416 0.0000 0.0000 -1.4337 -3.0513 -2.1841 -8.8947 0.0000 -0.0000 19.2775 5.3355 -6.5017 27.1833 0.0000 0.0000 -14.8223 2.2153 -2.1564 -24.4976 0.0000 -0.0000
 2.6015 -4.1563 34.4717 1.2370 5.4811 -168.2981 0.7479 7.5986 -2.2457 0.2367 1.1441 -0.3250 4.7447 -5.6253 -9.3874 1.8060 -1.3536 -0.2143 0.9466 -10.9124 -6.8368 -3.0301 -0.2144 1.6384 12.1726 -10.3833 -5.6861 23.1004 -9.3111 13.4939 0.0000 0.0000 19.6602 9.2114 20.0133 -9.2952 -0.0000 0.0000 0.0000 0.0000 -0.0000 -0.0000 15.5010 -5.1243 -22.2880 28.7446 19.7214 -71.7070 -0.0001 -0.0001 -89.3651 -6.3992 -16.3047 -7.4674 -0.0000 0.0000 -0.0000 -0.0000 -0.0000 0.0000 -37.4990 8.9200 -12.5655 37.8750 0.0000 0.0000 -2.2061 -0.4375 -3.9112 -5.8705 0.0000 -0.0000 19.0361 4.2291 -5.7877 30.0884 0.0000 0.0000 -12.2213 2.7340 -2.9076 -29.3577 0.0000 -0.0000
 2.6301 -3.0972 34.3156 1.4838 4.3633 -168.9850 0.5043 6.9132 -2.2432 0.1548 1.1399 -0.3664 4.5256 -6.2146 -9.7596 1.7617 -1.4648 -0.1723 1.2591 -10.7925 -6.3483 -2.8011 0.2853 2.5262 11.0989 -9.8766 -6.0362 22.8770 -8.0746 12.0645 0.0000 0.0000 19.0236 10.1041 19.7372 -9.8487 0.0000 0.0000 -0.0000 0.0000 -0.0000 -0.0000 15.2949 -5.1325 -21.9650 29.0947 20.6041 -71.8998 -0.0001 -0.0001 -91.8199 -7.5618 -16.1471 -7.4079 -0.0000 0.0000 0.0000 -0.0000 0.0000 0.0000 -37.9204 6.9128 -11.0021 41.4299 0.0000 0.0000 -3.7965 1.4678 -5.7060 -3.2611 0.0000 -0.0000 18.6429 2.8852 -4.8834 33.3833 0.0000 0.0000 -8.7400 2.9579 -4.1157 -34.6232 0.0000 -0.0000
 2.6742 -2.0288 34.1659 1.8903 3.2410 -169.6026 0.3713 6.2759 -2.2528 0.1066 1.1202 -0.4123 4.3888 -6.8423 -10.1017 1.7248 -1.5921 -0.1070 1.4999 -10.6898 -5.8951 -2.6185 0.8259 3.4276 10.1365 -9.3100 -6.3721 22.8368 -6.8867 10.9044 0.0000 0.0000 18.5676 10.8298 19.3743 -10.2039 0.0000 0.0000 0.0000 -0.0000 0.0000 0.0000 15.2146 -5.3323 -21.7180 29.3442 21.1983 -71.8892 -0.0001 -0.0001 -94.0121 -8.3322 -16.2290 -7.2461 -0.0000 -0.0000 -0.0000 -0.0000 0.0000 0.0000 -37.9751 4.8675 -9.7688 44.8470 0.0000 0.0000 -6.1882 2.5960 -7.4536 -1.5330 0.0000 -0.0000 18.1036 1.3987 -3.8215 37.0500 0.0000 0.0000 -4.3993 2.8238 -5.7457 -39.3065 0.0000 -0.0000
